<?xml version="1.0" encoding="utf-8"?>
<!-- Generator: Adobe Illustrator 18.1.1, SVG Export Plug-In . SVG Version: 6.00 Build 0)  -->
<svg version="1.1" id="Layer_1" xmlns="http://www.w3.org/2000/svg" xmlns:xlink="http://www.w3.org/1999/xlink" x="0px" y="0px"
	 viewBox="-3595.5 231.3 841.9 850.4" enable-background="new -3595.5 231.3 841.9 850.4" xml:space="preserve">
<g id="Layer_1_1_" display="none">
	
		<image display="inline" overflow="visible" enable-background="new    " width="364" height="113" xlink:href="C9FA052EF2F46B5D.png"  transform="matrix(11.2252 0 0 11.2252 -1583.7894 -1638.1796)">
	</image>
</g>
<g id="Layer_1_2_" display="none">
	
		<image display="inline" overflow="visible" enable-background="new    " width="367" height="116" xlink:href="C9FA052EF2F46B63.png"  transform="matrix(9.4779 0 0 9.3089 -1271.2876 -1314.7323)">
	</image>
</g>
<g>
	<path d="M-2755,396.2c-30.9,13.7-64,22.9-98.9,27.1c35.5-21.3,62.8-55,75.7-95.2c-33.3,19.7-70.1,34-109.3,41.8
		c-31.4-33.5-76.1-54.4-125.7-54.4c-95.1,0-172.1,77.1-172.1,172.1c0,13.5,1.5,26.6,4.5,39.2c-143.1-7.2-269.9-75.7-354.8-179.9
		c-14.8,25.4-23.3,55-23.3,86.5c0,59.7,30.4,112.4,76.6,143.3c-28.2-0.9-54.8-8.6-78-21.5c0,0.7,0,1.4,0,2.2
		c0,83.4,59.3,153,138.1,168.8c-14.4,3.9-29.7,6-45.4,6c-11.1,0-21.9-1.1-32.4-3.1c21.9,68.4,85.5,118.2,160.8,119.5
		c-58.9,46.2-133.1,73.7-213.8,73.7c-13.9,0-27.6-0.8-41.1-2.4c76.2,48.9,166.7,77.4,263.9,77.4c316.6,0,489.8-262.3,489.8-489.8
		c0-7.5-0.2-14.9-0.5-22.3C-2807.3,461.1-2778.1,430.7-2755,396.2L-2755,396.2z"/>
</g>
<rect x="-3595.5" y="231.3" fill="none" width="841.9" height="850.4"/>
</svg>
